<?xml version="1.0" encoding="UTF-8"?>
<svg class="css-1j8o68f" viewBox="0 0 398.3 96.6" xmlns="http://www.w3.org/2000/svg">
<g transform="scale(1.932)" fill="#ffebb7" featurekey="symbolContainer">
<circle cx="25" cy="25" r="25"/>
</g>
<g transform="matrix(.77196 0 0 .77196 9.7542 9.9055)" fill="#111" featurekey="symbolFeature-0">
<path d="M7,47c-0.829,0-1.5,0.671-1.5,1.5v3C5.5,52.329,6.171,53,7,53s1.5-0.671,1.5-1.5v-3C8.5,47.671,7.829,47,7,47z" xmlns="http://www.w3.org/2000/svg"/>
<path d="m12.733 41.603c-0.829 0-1.5 0.671-1.5 1.5v13.795c0 0.829 0.671 1.5 1.5 1.5s1.5-0.671 1.5-1.5v-13.795c0-0.829-0.671-1.5-1.5-1.5z" xmlns="http://www.w3.org/2000/svg"/>
<path d="m18.467 44.667c-0.829 0-1.5 0.671-1.5 1.5v7.667c0 0.829 0.671 1.5 1.5 1.5s1.5-0.671 1.5-1.5v-7.667c0-0.829-0.672-1.5-1.5-1.5z" xmlns="http://www.w3.org/2000/svg"/>
<path d="m24.2 36.375c-0.829 0-1.5 0.671-1.5 1.5v24.25c0 0.829 0.671 1.5 1.5 1.5s1.5-0.671 1.5-1.5v-24.25c0-0.829-0.671-1.5-1.5-1.5z" xmlns="http://www.w3.org/2000/svg"/>
<path d="m29.933 28.833c-0.829 0-1.5 0.671-1.5 1.5v39.333c0 0.829 0.671 1.5 1.5 1.5s1.5-0.671 1.5-1.5v-39.333c0-0.828-0.671-1.5-1.5-1.5z" xmlns="http://www.w3.org/2000/svg"/>
<path d="m35.667 37.333c-0.829 0-1.5 0.671-1.5 1.5v22.333c0 0.829 0.671 1.5 1.5 1.5s1.5-0.671 1.5-1.5v-22.333c0-0.828-0.672-1.5-1.5-1.5z" xmlns="http://www.w3.org/2000/svg"/>
<path d="m41.534 29.835c-0.87-0.024-1.505 0.662-1.51 1.49l-0.249 37.331c-5e-3 0.828 0.662 1.504 1.49 1.51h0.01c0.824 0 1.495-0.665 1.5-1.49l0.249-37.331c6e-3 -0.828-0.661-1.505-1.49-1.51z" xmlns="http://www.w3.org/2000/svg"/>
<path d="m47.133 20.849c-0.829 0-1.5 0.671-1.5 1.5v55.303c0 0.829 0.671 1.5 1.5 1.5s1.5-0.671 1.5-1.5v-55.303c0-0.829-0.671-1.5-1.5-1.5z" xmlns="http://www.w3.org/2000/svg"/>
<path d="m52.867 27.25c-0.829 0-1.5 0.671-1.5 1.5v42.5c0 0.829 0.671 1.5 1.5 1.5s1.5-0.671 1.5-1.5v-42.5c0-0.829-0.672-1.5-1.5-1.5z" xmlns="http://www.w3.org/2000/svg"/>
<path d="m58.6 37.333c-0.829 0-1.5 0.671-1.5 1.5v22.333c0 0.829 0.671 1.5 1.5 1.5s1.5-0.671 1.5-1.5v-22.333c0-0.828-0.671-1.5-1.5-1.5z" xmlns="http://www.w3.org/2000/svg"/>
<path d="m64.333 31c-0.829 0-1.5 0.671-1.5 1.5v35c0 0.829 0.671 1.5 1.5 1.5s1.5-0.671 1.5-1.5v-35c0-0.829-0.671-1.5-1.5-1.5z" xmlns="http://www.w3.org/2000/svg"/>
<path d="m70.067 39.632c-0.829 0-1.5 0.671-1.5 1.5v17.735c0 0.829 0.671 1.5 1.5 1.5s1.5-0.671 1.5-1.5v-17.735c0-0.828-0.671-1.5-1.5-1.5z" xmlns="http://www.w3.org/2000/svg"/>
<path d="m75.8 43.5c-0.829 0-1.5 0.671-1.5 1.5v10c0 0.829 0.671 1.5 1.5 1.5s1.5-0.671 1.5-1.5v-10c0-0.829-0.672-1.5-1.5-1.5z" xmlns="http://www.w3.org/2000/svg"/>
<path d="m81.533 41.735c-0.829 0-1.5 0.671-1.5 1.5v13.53c0 0.829 0.671 1.5 1.5 1.5s1.5-0.671 1.5-1.5v-13.53c0-0.829-0.671-1.5-1.5-1.5z" xmlns="http://www.w3.org/2000/svg"/>
<path d="m87.267 45.99c-0.829 0-1.5 0.671-1.5 1.5v5.021c0 0.829 0.671 1.5 1.5 1.5s1.5-0.671 1.5-1.5v-5.021c0-0.829-0.672-1.5-1.5-1.5z" xmlns="http://www.w3.org/2000/svg"/>
<path d="m93 47.417c-0.829 0-1.5 0.671-1.5 1.5v2.167c0 0.829 0.671 1.5 1.5 1.5s1.5-0.671 1.5-1.5v-2.167c0-0.829-0.671-1.5-1.5-1.5z" xmlns="http://www.w3.org/2000/svg"/>
</g>
<g transform="matrix(2.7466 0 0 2.7466 113.04 -28.078)" fill="#fff4e1" featurekey="nameFeature-0">
<path d="m23.92 25v13.6c-2.84 1.08-6.4 1.68-9.44 1.68-7.8 0-13.04-4.68-13.04-12.4 0-8.44 6.28-12.56 13.96-12.56 0.52 0 1.08 0 1.72 0.04 0.6 0.04 1.24 0.12 1.92 0.16 1.24 0.16 2.48 0.32 3.68 0.68v6.12c-0.44-0.2-0.92-0.36-1.48-0.52-0.6-0.12-1.2-0.24-1.84-0.36-1.28-0.24-2.64-0.32-3.96-0.32-5.08 0-8 1.56-8 6.76 0 5.08 2.68 6.6 7.24 6.6 0.48 0 1-0.04 1.56-0.08 0.52-0.04 1.08-0.08 1.68-0.12v-3.72h-5.2v-5.56h11.2zm9.339-9.48h6v24.48h-6v-24.48zm37.739 9.48v13.6c-2.84 1.08-6.4 1.68-9.44 1.68-7.8 0-13.04-4.68-13.04-12.4 0-8.44 6.28-12.56 13.96-12.56 0.52 0 1.08 0 1.72 0.04 0.6 0.04 1.24 0.12 1.92 0.16 1.24 0.16 2.48 0.32 3.68 0.68v6.12c-0.44-0.2-0.92-0.36-1.48-0.52-0.6-0.12-1.2-0.24-1.84-0.36-1.28-0.24-2.64-0.32-3.96-0.32-5.08 0-8 1.56-8 6.76 0 5.08 2.68 6.6 7.24 6.6 0.48 0 1-0.04 1.56-0.08 0.52-0.04 1.08-0.08 1.68-0.12v-3.72h-5.2v-5.56h11.2zm24.539 10.04h-9l-1.76 4.96h-6.52l9.8-24.48h6l9.8 24.48h-6.56zm-7.04-5.56h5.08l-2.52-7.12z"/>
</g>
</svg>
